<?xml version="1.0" encoding="UTF-8" standalone="no"?>
<!-- Uploaded to: SVG Repo, www.svgrepo.com, Generator: SVG Repo Mixer Tools -->

<svg
   width="429.55545"
   height="112.1783"
   viewBox="0 0 274.91549 71.794111"
   id="Layer_1"
   version="1.1"
   xml:space="preserve"
   sodipodi:docname="logo-white.svg"
   inkscape:version="1.3 (0e150ed6c4, 2023-07-21)"
   xmlns:inkscape="http://www.inkscape.org/namespaces/inkscape"
   xmlns:sodipodi="http://sodipodi.sourceforge.net/DTD/sodipodi-0.dtd"
   xmlns:xlink="http://www.w3.org/1999/xlink"
   xmlns="http://www.w3.org/2000/svg"
   xmlns:svg="http://www.w3.org/2000/svg"><sodipodi:namedview
   id="namedview5"
   pagecolor="#ffffff"
   bordercolor="#000000"
   borderopacity="0.25"
   inkscape:showpageshadow="2"
   inkscape:pageopacity="0.0"
   inkscape:pagecheckerboard="0"
   inkscape:deskcolor="#d1d1d1"
   inkscape:zoom="0.93875"
   inkscape:cx="268.44208"
   inkscape:cy="135.81891"
   inkscape:window-width="1920"
   inkscape:window-height="986"
   inkscape:window-x="-11"
   inkscape:window-y="-11"
   inkscape:window-maximized="1"
   inkscape:current-layer="Layer_1" /><defs
   id="defs5"><rect
     x="574.16779"
     y="307.8562"
     width="89.48069"
     height="83.089211"
     id="rect9" /><rect
     x="542.21039"
     y="180.02663"
     width="24.500666"
     height="107.58988"
     id="rect8" /><rect
     x="320.63916"
     y="60.71904"
     width="285.73404"
     height="74.525238"
     id="rect7" /><rect
     x="309.98669"
     y="68.175766"
     width="449.53394"
     height="207.72304"
     id="rect6" /><rect
     x="313.18243"
     y="150.19974"
     width="230.09322"
     height="42.609856"
     id="rect5" /></defs>&#10;&#10;<style
   type="text/css"
   id="style1">&#10;	.st0{fill:#1B3954;}&#10;	.st1{fill:#16ADE1;}&#10;</style>&#10;&#10;<g
   id="g5"
   transform="translate(-85.093308,-114.73389)"
   style="fill:#ffffff;fill-opacity:1">&#10;&#10;<g
   id="g4"
   transform="matrix(0.17060834,0,0,0.16293699,79.066568,108.92519)"
   style="fill:#ffffff;fill-opacity:1">&#10;&#10;<path
   class="st0"
   d="m 458.3,54.1 c -24.6,-24.6 -64.4,-24.6 -89,0 L 155.2,268.2 c -3.3,3.3 -5.7,7.4 -7,11.8 l -20.8,73.3 30.9,30.9 0.7,0.7 73.3,-20.8 c 4.5,-1.3 8.5,-3.7 11.8,-7 L 458.2,143 c 24.7,-24.5 24.7,-64.3 0.1,-88.9 z M 290,232.3 267.3,255 l 9.1,9.1 c 2.7,2.7 2.7,7.2 0,9.9 -1.4,1.4 -3.2,2.1 -5,2.1 -1.8,0 -3.6,-0.7 -5,-2.1 l -9.1,-9.1 -14.7,14.7 9.1,9.1 c 2.7,2.7 2.7,7.2 0,9.9 -1.4,1.4 -3.2,2 -5,2 -1.8,0 -3.6,-0.7 -4.9,-2 l -9.1,-9.1 -14.7,14.7 9.1,9.1 c 2.7,2.7 2.7,7.2 0,9.9 -1.4,1.4 -3.2,2 -5,2 -1.8,0 -3.6,-0.7 -4.9,-2 l -9.1,-9.1 -18.3,18.3 c -1.4,1.4 -3.2,2 -4.9,2 -1.7,0 -3.6,-0.7 -5,-2 -2.7,-2.7 -2.7,-7.2 0,-9.9 l 7.8,-7.8 -9,-9 c -2.7,-2.7 -2.7,-7.2 0,-9.9 2.7,-2.7 7.2,-2.7 9.9,0 l 9,9 14.7,-14.7 -9,-9 c -2.7,-2.7 -2.7,-7.2 0,-9.9 2.7,-2.7 7.2,-2.7 9.9,0 l 9,9 14.7,-14.7 -9,-9 c -2.7,-2.7 -2.7,-7.2 0,-9.9 2.7,-2.7 7.2,-2.7 9.9,0 l 9,9 14.7,-14.7 -9,-9 c -2.7,-2.7 -2.7,-7.2 0,-9.9 2.7,-2.7 7.2,-2.7 9.9,0 l 9,9 8.7,-8.7 c 2.7,-2.7 7.2,-2.7 9.9,0 2.8,2.8 2.8,7.2 0,10 z m 30.9,-52.7 c -5.3,5.3 -14,5.3 -19.3,0 -5.3,-5.3 -5.3,-14 0,-19.3 5.3,-5.3 14,-5.3 19.3,0 5.4,5.3 5.4,14 0,19.3 z m 31.2,31.2 c -5.3,5.3 -14,5.3 -19.3,0 -5.3,-5.3 -5.3,-14 0,-19.3 5.3,-5.3 14,-5.3 19.3,0 5.3,5.3 5.3,14 0,19.3 z m 58.5,-62.6 -24.2,24.2 c -3.6,3.6 -9.6,3.6 -13.2,0 L 340,139.1 c -3.6,-3.6 -3.6,-9.6 0,-13.2 l 24.2,-24.2 c 3.6,-3.7 9.6,-3.7 13.2,0 l 33.2,33.2 c 3.7,3.7 3.7,9.6 0,13.3 z"
   id="path1"
   style="fill:#ffffff;fill-opacity:1" />&#10;&#10;<g
   id="g3"
   style="fill:#ffffff;fill-opacity:1">&#10;&#10;<g
   id="g2"
   style="fill:#ffffff;fill-opacity:1">&#10;&#10;<path
   class="st1"
   d="m 127,394.5 c -1.4,1.4 -3.2,2 -5,2 -1.8,0 -3.6,-0.7 -4.9,-2 -2.7,-2.7 -2.7,-7.2 0,-9.9 L 128,373.7 117.5,363.2 41.7,439 c -8.5,8.5 -8.5,22.4 0,30.9 8.5,8.5 22.4,8.5 30.9,0 l 75.8,-75.8 -10.5,-10.5 z m -20.6,20.6 c -0.3,0.3 -0.7,0.6 -1.1,0.9 -0.4,0.3 -0.8,0.5 -1.2,0.7 -0.4,0.2 -0.9,0.3 -1.3,0.4 -0.5,0.1 -0.9,0.1 -1.4,0.1 -0.5,0 -0.9,0 -1.4,-0.1 -0.5,-0.1 -0.9,-0.2 -1.3,-0.4 -0.4,-0.2 -0.8,-0.4 -1.2,-0.7 -0.4,-0.3 -0.7,-0.5 -1.1,-0.9 -0.3,-0.3 -0.6,-0.7 -0.9,-1.1 -0.3,-0.4 -0.5,-0.8 -0.6,-1.2 -0.2,-0.4 -0.3,-0.9 -0.4,-1.3 -0.1,-0.5 -0.1,-0.9 -0.1,-1.4 0,-0.5 0,-0.9 0.1,-1.4 0.1,-0.5 0.2,-0.9 0.4,-1.3 0.2,-0.4 0.4,-0.8 0.6,-1.2 0.3,-0.4 0.5,-0.7 0.9,-1.1 0.3,-0.3 0.7,-0.6 1.1,-0.9 0.4,-0.3 0.8,-0.5 1.2,-0.6 0.4,-0.2 0.9,-0.3 1.3,-0.4 0.9,-0.2 1.8,-0.2 2.7,0 0.5,0.1 0.9,0.2 1.3,0.4 0.4,0.2 0.8,0.4 1.2,0.6 0.4,0.3 0.7,0.6 1.1,0.9 0.3,0.3 0.6,0.7 0.9,1.1 0.3,0.4 0.5,0.8 0.6,1.2 0.2,0.4 0.3,0.9 0.4,1.3 0.1,0.4 0.1,0.9 0.1,1.4 0.2,1.9 -0.6,3.7 -1.9,5 z"
   id="path2"
   style="fill:#ffffff;fill-opacity:1" />&#10;&#10;</g>&#10;&#10;</g>&#10;&#10;</g>&#10;&#10;<text
   xml:space="preserve"
   transform="scale(0.64)"
   id="text5"
   style="white-space:pre;shape-inside:url(#rect5);display:inline;fill:#ffffff;fill-opacity:1" /><path
   style="white-space:pre;shape-inside:url(#rect6);fill:#ffffff;fill-opacity:1"
   sodipodi:type="inkscape:offset"
   inkscape:radius="0"
   inkscape:original=""
   xlink:href="#text6"
   id="path6"
   inkscape:href="#text6"
   d="" /><text
   xml:space="preserve"
   id="text6"
   style="font-size:24px;white-space:pre;shape-inside:url(#rect6);display:inline;fill:#ffffff;fill-opacity:1"
   transform="scale(0.64)" /><text
   xml:space="preserve"
   id="text7"
   style="font-style:normal;font-variant:normal;font-weight:normal;font-stretch:normal;font-size:37.3333px;font-family:Broadway;-inkscape-font-specification:Broadway;white-space:pre;shape-inside:url(#rect7);display:inline;fill:#ffffff;fill-opacity:1"
   transform="matrix(0.94593497,0,0,0.97060785,-157.06335,73.034125)"><tspan
     x="320.63867"
     y="101.49344"
     id="tspan1">Mój Lekarz</tspan></text><text
   xml:space="preserve"
   transform="scale(0.64)"
   id="text8"
   style="font-size:37.3333px;white-space:pre;shape-inside:url(#rect8);display:inline;fill:#ffffff;fill-opacity:1" /><text
   xml:space="preserve"
   transform="matrix(0.64,0,0,0.64,99.41022,107.91631)"
   id="text9"
   style="font-style:normal;font-variant:normal;font-weight:normal;font-stretch:normal;font-size:37.3333px;font-family:Castellar;-inkscape-font-specification:Castellar;white-space:pre;shape-inside:url(#rect9);display:inline;fill:#ffffff;fill-opacity:1" /></g>&#10;&#10;</svg>
